<svg width="512" height="512" viewBox="0 0 512 512" fill="none" xmlns="http://www.w3.org/2000/svg">
  <!-- Motion lines -->
  <line x1="60" y1="180" x2="140" y2="180" stroke="#1a1a1a" stroke-width="12" stroke-linecap="round"/>
  <line x1="70" y1="230" x2="150" y2="230" stroke="#1a1a1a" stroke-width="12" stroke-linecap="round"/>
  <line x1="80" y1="280" x2="160" y2="280" stroke="#1a1a1a" stroke-width="12" stroke-linecap="round"/>
  <line x1="70" y1="330" x2="150" y2="330" stroke="#1a1a1a" stroke-width="12" stroke-linecap="round"/>
  <line x1="60" y1="380" x2="140" y2="380" stroke="#1a1a1a" stroke-width="12" stroke-linecap="round"/>
  <line x1="80" y1="430" x2="160" y2="430" stroke="#1a1a1a" stroke-width="12" stroke-linecap="round"/>

  <!-- Stopwatch body -->
  <circle cx="320" cy="305" r="180" fill="white" stroke="#1a1a1a" stroke-width="16"/>

  <!-- Top button -->
  <rect x="300" y="80" width="40" height="30" rx="4" fill="#1a1a1a"/>
  <rect x="290" y="110" width="60" height="20" rx="6" fill="#1a1a1a"/>

  <!-- Hour marks -->
  <line x1="320" y1="145" x2="320" y2="165" stroke="#1a1a1a" stroke-width="8" stroke-linecap="round"/>
  <line x1="400" y1="225" x2="380" y2="225" stroke="#1a1a1a" stroke-width="8" stroke-linecap="round"/>
  <line x1="320" y1="465" x2="320" y2="445" stroke="#1a1a1a" stroke-width="8" stroke-linecap="round"/>
  <line x1="240" y1="225" x2="260" y2="225" stroke="#1a1a1a" stroke-width="8" stroke-linecap="round"/>

  <!-- Additional tick marks -->
  <line x1="380" y1="180" x2="365" y2="190" stroke="#1a1a1a" stroke-width="6" stroke-linecap="round"/>
  <line x1="410" y1="265" x2="390" y2="265" stroke="#1a1a1a" stroke-width="6" stroke-linecap="round"/>
  <line x1="380" y1="350" x2="365" y2="340" stroke="#1a1a1a" stroke-width="6" stroke-linecap="round"/>
  <line x1="340" y1="430" x2="340" y2="410" stroke="#1a1a1a" stroke-width="6" stroke-linecap="round"/>
  <line x1="260" y1="430" x2="260" y2="410" stroke="#1a1a1a" stroke-width="6" stroke-linecap="round"/>
  <line x1="220" y1="350" x2="235" y2="340" stroke="#1a1a1a" stroke-width="6" stroke-linecap="round"/>
  <line x1="210" y1="265" x2="230" y2="265" stroke="#1a1a1a" stroke-width="6" stroke-linecap="round"/>
  <line x1="220" y1="180" x2="235" y2="190" stroke="#1a1a1a" stroke-width="6" stroke-linecap="round"/>

  <!-- Clock hand -->
  <line x1="320" y1="305" x2="375" y2="220" stroke="#1a1a1a" stroke-width="10" stroke-linecap="round"/>

  <!-- Center dot -->
  <circle cx="320" cy="305" r="12" fill="#1a1a1a"/>
</svg>
